# xmcd CD database file
#
# Track frame offsets:
#	150
#	58613
#	116595
#	193918
#
# Disc length: 3606 seconds
#
# Revision: 0
# Processed by: cddbd v1.5.2PL0 Copyright (c) Steve Scherf et al.
# Submitted via: CDex 1.81
#
DISCID=350e1404
DTITLE=Freddie Hubbard - Live in Warsaw
DYEAR=2001
DGENRE=Jazz
TTITLE0=Bolivia (Walton)
TTITLE1=God Bess the Child (Holiday)
TTITLE2=All Blues (Davis)
TTITLE3=Dear John (Hubbard)
EXTD=YEAR: 2001
EXTT0=
EXTT1=
EXTT2=
EXTT3=
PLAYORDER=
